HIERARCHY
ROOT hip
{
  OFFSET 0 0 0
  CHANNELS 6 Xposition Yposition Zposition Zrotation Yrotation Xrotation
  JOINT abdomen
  {
    OFFSET 0 20.6881 -0.73152
    CHANNELS 3 Zrotation Xrotation Yrotation
    JOINT chest
    {
      OFFSET 0 11.7043 -0.48768
      CHANNELS 3 Zrotation Xrotation Yrotation
      JOINT neck
      {
        OFFSET 0 22.1894 -2.19456
        CHANNELS 3 Zrotation Xrotation Yrotation
        JOINT head
        {
          OFFSET -0.24384 7.07133 1.2192
          CHANNELS 3 Zrotation Xrotation Yrotation
          JOINT leftEye
          {
            OFFSET 4.14528 8.04674 8.04672
            CHANNELS 3 Zrotation Xrotation Yrotation
            End Site
            {
              OFFSET 1 0 0
            }
          }
          JOINT rightEye
          {
            OFFSET -3.6576 8.04674 8.04672
            CHANNELS 3 Zrotation Xrotation Yrotation
            End Site
            {
              OFFSET 1 0 0
            }
          }
        }
      }
      JOINT rCollar
      {
        OFFSET -2.68224 19.2634 -4.8768
        CHANNELS 3 Zrotation Xrotation Yrotation
        JOINT rShldr
        {
          OFFSET -8.77824 -1.95073 1.46304
          CHANNELS 3 Zrotation Xrotation Yrotation
          JOINT rForeArm
          {
            OFFSET -28.1742 -1.7115 0.48768
            CHANNELS 3 Zrotation Xrotation Yrotation
            JOINT rHand
            {
              OFFSET -22.5879 0.773209 7.07136
              CHANNELS 3 Zrotation Xrotation Yrotation
              JOINT rThumb1
              {
                OFFSET -1.2192 -0.487915 3.41376
                CHANNELS 3 Zrotation Xrotation Yrotation
                JOINT rThumb2
                {
                  OFFSET -3.37035 -0.52449 3.41376
                  CHANNELS 3 Zrotation Xrotation Yrotation
                  End Site
                  {
                    OFFSET -1.78271 -1.18214 1.43049
                  }
                }
              }
              JOINT rIndex1
              {
                OFFSET -7.75947 0.938293 5.60832
                CHANNELS 3 Zrotation Xrotation Yrotation
                JOINT rIndex2
                {
                  OFFSET -2.54057 -0.884171 1.56538
                  CHANNELS 3 Zrotation Xrotation Yrotation
                  End Site
                  {
                    OFFSET -1.62519 -0.234802 1.16502
                  }
                }
              }
              JOINT rMid1
              {
                OFFSET -8.24714 1.18213 3.41376
                CHANNELS 3 Zrotation Xrotation Yrotation
                JOINT rMid2
                {
                  OFFSET -3.10165 -0.590103 1.0647
                  CHANNELS 3 Zrotation Xrotation Yrotation
                  End Site
                  {
                    OFFSET -2.48547 -0.328903 0.83742
                  }
                }
              }
              JOINT rRing1
              {
                OFFSET -8.82822 0.546677 1.51678
                CHANNELS 3 Zrotation Xrotation Yrotation
                JOINT rRing2
                {
                  OFFSET -2.60934 -0.819778 -0.0198488
                  CHANNELS 3 Zrotation Xrotation Yrotation
                  End Site
                  {
                    OFFSET -2.33842 -0.294052 0.168128
                  }
                }
              }
              JOINT rPinky1
              {
                OFFSET -8.27202 -0.0477905 -0.4584
                CHANNELS 3 Zrotation Xrotation Yrotation
                JOINT rPinky2
                {
                  OFFSET -1.82734 -0.647385 -0.700984
                  CHANNELS 3 Zrotation Xrotation Yrotation
                  End Site
                  {
                    OFFSET -1.69225 -0.51767 -0.607171
                  }
                }
              }
            }
          }
        }
      }
      JOINT lCollar
      {
        OFFSET 2.68224 19.2634 -4.8768
        CHANNELS 3 Zrotation Xrotation Yrotation
        JOINT lShldr
        {
          OFFSET 8.77824 -1.95073 1.46304
          CHANNELS 3 Zrotation Xrotation Yrotation
          JOINT lForeArm
          {
            OFFSET 28.1742 -1.7115 0.48768
            CHANNELS 3 Zrotation Xrotation Yrotation
            JOINT lHand
            {
              OFFSET 22.5879 0.773209 7.07136
              CHANNELS 3 Zrotation Xrotation Yrotation
              JOINT lThumb1
              {
                OFFSET 1.2192 -0.487915 3.41376
                CHANNELS 3 Zrotation Xrotation Yrotation
                JOINT lThumb2
                {
                  OFFSET 3.37035 -0.52449 3.41376
                  CHANNELS 3 Zrotation Xrotation Yrotation
                  End Site
                  {
                    OFFSET 1.78271 -1.18214 1.43049
                  }
                }
              }
              JOINT lIndex1
              {
                OFFSET 7.75947 0.938293 5.60832
                CHANNELS 3 Zrotation Xrotation Yrotation
                JOINT lIndex2
                {
                  OFFSET 2.54057 -0.884171 1.56538
                  CHANNELS 3 Zrotation Xrotation Yrotation
                  End Site
                  {
                    OFFSET 1.62519 -0.234802 1.16502
                  }
                }
              }
              JOINT lMid1
              {
                OFFSET 8.24714 1.18213 3.41376
                CHANNELS 3 Zrotation Xrotation Yrotation
                JOINT lMid2
                {
                  OFFSET 3.10165 -0.590103 1.0647
                  CHANNELS 3 Zrotation Xrotation Yrotation
                  End Site
                  {
                    OFFSET 2.48547 -0.328903 0.83742
                  }
                }
              }
              JOINT lRing1
              {
                OFFSET 8.82822 0.546677 1.51678
                CHANNELS 3 Zrotation Xrotation Yrotation
                JOINT lRing2
                {
                  OFFSET 2.60934 -0.819778 -0.0198488
                  CHANNELS 3 Zrotation Xrotation Yrotation
                  End Site
                  {
                    OFFSET 2.33842 -0.294052 0.168128
                  }
                }
              }
              JOINT lPinky1
              {
                OFFSET 8.27202 -0.0477905 -0.4584
                CHANNELS 3 Zrotation Xrotation Yrotation
                JOINT lPinky2
                {
                  OFFSET 1.82734 -0.647385 -0.700984
                  CHANNELS 3 Zrotation Xrotation Yrotation
                  End Site
                  {
                    OFFSET 1.69225 -0.51767 -0.607171
                  }
                }
              }
            }
          }
        }
      }
    }
  }
  JOINT rButtock
  {
    OFFSET -8.77824 4.35084 1.2192
    CHANNELS 3 Zrotation Xrotation Yrotation
    JOINT rThigh
    {
      OFFSET 0 -1.70687 -2.19456
      CHANNELS 3 Zrotation Xrotation Yrotation
      JOINT rShin
      {
        OFFSET 0 -36.8199 0.73152
        CHANNELS 3 Zrotation Xrotation Yrotation
        JOINT rFoot
        {
          OFFSET 0.73152 -45.1104 -5.12064
          CHANNELS 3 Zrotation Xrotation Yrotation
          End Site
          {
            OFFSET -1.1221 -3.69964 12.103
          }
        }
      }
    }
  }
  JOINT lButtock
  {
    OFFSET 8.77824 4.35084 1.2192
    CHANNELS 3 Zrotation Xrotation Yrotation
    JOINT lThigh
    {
      OFFSET 0 -1.70687 -2.19456
      CHANNELS 3 Zrotation Xrotation Yrotation
      JOINT lShin
      {
        OFFSET 0 -36.8199 0.73152
        CHANNELS 3 Zrotation Xrotation Yrotation
        JOINT lFoot
        {
          OFFSET -0.73152 -45.1104 -5.12064
          CHANNELS 3 Zrotation Xrotation Yrotation
          End Site
          {
            OFFSET 1.1221 -3.69964 12.103
          }
        }
      }
    }
  }
}
MOTION
Frames:	6
Frame Time:	0.00833333
26.3126 85.0966 -46.9228 0.0 0.0 0.0 0.283887 -0.00291376 0.00816054 0.0784573 -0.00473274 0.0135941 3.13375e-15 -7.95139e-16 -3.28684e-24 9.43917e-15 3.18055e-15 -2.48481e-17 -0.0 0.0 0.0 -0.0 0.0 0.0 1.6387e-15 -1.94126e-19 1.49089e-16 3.4569e-14 6.83322e-17 7.95139e-16 5.73295e-13 -1.73937e-13 -2.54444e-14 6.55657e-12 1.59351e-13 6.36111e-15 1.54652e-11 -3.31175e-14 -2.22639e-14 2.67008e-11 -5.725e-14 -4.05521e-14 1.5471e-11 -3.33958e-14 -2.54444e-14 7.73091 5.47488 0.417314 1.54645e-11 -3.29983e-14 -2.22639e-14 2.90554 0.965183 0.102902 1.54699e-11 -3.29983e-14 -2.22639e-14 10.2786 0.731801 0.0259123 1.54601e-11 -3.02153e-14 -1.59028e-14 2.22167 -0.733487 -0.20892 1.54196e-15 1.94126e-19 -1.49089e-16 3.14437e-14 -1.42876e-16 -7.95139e-16 5.71257e-13 1.68172e-13 9.54166e-15 6.55691e-12 -1.85342e-13 -9.54166e-15 1.54674e-11 -3.62177e-14 -2.22639e-14 2.67198e-11 -6.99722e-14 -3.02153e-14 1.54643e-11 -3.49861e-14 -9.54166e-15 -7.73091 5.47488 -0.417314 1.54675e-11 -3.62782e-14 -1.90833e-14 -2.90554 0.965183 -0.102902 1.54568e-11 -3.56818e-14 -1.66979e-14 -10.2786 0.731801 -0.0259123 1.54704e-11 -3.49861e-14 -2.54444e-14 -2.22167 -0.733487 0.20892 -2.03217e-16 0.0 -3.88251e-19 0.669039 -3.85851 -0.057252 -0.00341875 1.4379 -0.027448 -0.455385 2.42107 0.100348 2.03217e-16 0.0 3.88251e-19 -0.234699 -2.7242 0.0299358 0.00662557 -0.616649 0.0579649 0.449309 3.34127 -0.117923
26.5633 83.867 -48.1894 -3.8369 11.3391 4.6445 1.83741 -0.143795 1.40559 -0.280062 -0.641268 0.422878 0.971859 -2.14305 0.773719 0.209021 2.09622 1.12885 -0.0 0.0 0.0 -0.0 0.0 0.0 -8.10701e-15 -2.67229e-14 8.16314e-14 20.9678 11.0307 -0.6025 -8.28388 -5.18902 11.0226 0.019855 -3.15471 -0.441007 -3.64537e-10 3.38019e-10 7.58557e-11 -6.31902e-10 5.88854e-10 1.29334e-10 -3.64531e-10 3.38019e-10 7.58535e-11 7.73091 5.47488 0.417314 -3.64537e-10 3.38016e-10 7.58596e-11 2.90554 0.965183 0.102902 -3.64532e-10 3.38019e-10 7.58567e-11 10.2786 0.731801 0.0259123 -3.64541e-10 3.3802e-10 7.58624e-11 2.22167 -0.733487 -0.20892 -8.22998e-15 -2.67227e-14 8.14058e-14 -20.7801 9.88405 0.150365 5.65921 -2.94193 -8.40037 -0.141551 -8.36244 1.13056 -8.41623e-11 -1.58943e-10 1.43464e-10 -1.48682e-10 -2.77198e-10 2.45191e-10 -8.41657e-11 -1.58942e-10 1.43474e-10 -7.73091 5.47488 -0.417314 -8.41619e-11 -1.58942e-10 1.43466e-10 -2.90554 0.965183 -0.102902 -8.41687e-11 -1.58942e-10 1.43467e-10 -10.2786 0.731801 -0.0259123 -8.4159e-11 -1.58941e-10 1.43458e-10 -2.22167 -0.733487 0.20892 -2.03217e-16 0.0 -3.88251e-19 1.44342 -4.25033 -1.50187 0.00613797 2.9614 0.0334412 -0.387377 0.619198 -2.50241 2.03217e-16 0.0 3.88251e-19 2.00473 -7.30939 -3.83759 -0.000708459 6.01452 -0.076958 0.531711 -0.454155 1.26472
26.5354 83.8737 -48.2086 -3.7747 11.5134 4.5631 3.48705 -0.293445 2.88103 -0.648128 -1.31182 0.855185 2.06386 -4.40792 1.5971 0.33039 4.30537 2.33079 -0.0 0.0 0.0 -0.0 0.0 0.0 -1.95032e-14 -5.66169e-14 1.73992e-13 43.4039 22.7038 -1.31478 -14.9098 -10.044 22.9656 -0.0126881 -6.53774 -0.918558 -7.79245e-10 7.09123e-10 1.58086e-10 -1.35066e-09 1.23533e-09 2.69521e-10 -7.79238e-10 7.09123e-10 1.58085e-10 7.73091 5.47488 0.417314 -7.79243e-10 7.09116e-10 1.58095e-10 2.90554 0.965183 0.102902 -7.79238e-10 7.09121e-10 1.58089e-10 10.2786 0.731801 0.0259123 -7.79248e-10 7.09122e-10 1.58094e-10 2.22167 -0.733487 -0.20892 -1.96556e-14 -5.66168e-14 1.73847e-13 -42.8091 20.3116 0.334458 10.6967 -5.82585 -17.3267 0.0828805 -17.1958 2.40923 -1.9032e-10 -3.3159e-10 3.00879e-10 -3.35703e-10 -5.78376e-10 5.14286e-10 -1.90324e-10 -3.31591e-10 3.00885e-10 -7.73091 5.47488 -0.417314 -1.90319e-10 -3.31588e-10 3.0088e-10 -2.90554 0.965183 -0.102902 -1.90322e-10 -3.3159e-10 3.00879e-10 -10.2786 0.731801 -0.0259123 -1.90316e-10 -3.31588e-10 3.0087e-10 -2.22167 -0.733487 0.20892 -2.03217e-16 0.0 -3.88251e-19 2.23768 -4.66544 -3.0246 0.0127006 4.57145 0.0979636 -0.492983 -1.27536 -5.25574 2.03217e-16 0.0 3.88251e-19 3.68288 -12.0758 -8.04648 0.0261956 13.0245 -0.224556 0.820164 -4.46193 2.74557
26.473 83.8698 -48.2362 -3.8218 11.6666 4.497 4.96505 -0.424544 4.20056 -0.969807 -1.91394 1.24206 3.0901 -6.42445 2.3342 0.378151 6.27885 3.40474 -0.0 0.0 0.0 -0.0 0.0 0.0 -2.75984e-14 -8.01684e-14 2.44596e-13 63.7135 33.0759 -2.11734 -19.101 -13.2588 33.9529 -0.0878225 -9.46186 -1.33924 -1.12454e-09 1.01412e-09 2.27612e-10 -1.94911e-09 1.76668e-09 3.88084e-10 -1.12454e-09 1.01412e-09 2.27612e-10 7.73091 5.47488 0.417314 -1.12454e-09 1.01412e-09 2.27623e-10 2.90554 0.965183 0.102902 -1.12454e-09 1.01412e-09 2.27615e-10 10.2786 0.731801 0.0259123 -1.12454e-09 1.01412e-09 2.27619e-10 2.22167 -0.733487 -0.20892 -2.77738e-14 -8.01684e-14 2.44516e-13 -62.5158 29.6513 0.511363 14.4611 -8.06847 -25.4371 0.652048 -25.0461 3.70437 -2.83422e-10 -4.76755e-10 4.30436e-10 -4.99487e-10 -8.31454e-10 7.35634e-10 -2.83426e-10 -4.76757e-10 4.3044e-10 -7.73091 5.47488 -0.417314 -2.83421e-10 -4.76753e-10 4.30436e-10 -2.90554 0.965183 -0.102902 -2.8342e-10 -4.76755e-10 4.30434e-10 -10.2786 0.731801 -0.0259123 -2.83418e-10 -4.76753e-10 4.30424e-10 -2.22167 -0.733487 0.20892 -2.03217e-16 0.0 -3.88251e-19 2.93279 -5.02359 -4.3959 0.0154907 6.00836 0.155925 -0.741402 -2.9558 -7.71763 2.03217e-16 0.0 3.88251e-19 4.57359 -16.1887 -11.9597 0.0825242 19.2765 -0.366048 1.24925 -8.02532 4.0694
26.4076 83.8658 -48.2574 -3.88 11.7927 4.432 5.99925 -0.51024 5.13021 -1.19457 -2.34535 1.51478 3.82768 -7.82468 2.84309 0.418422 7.67258 4.14142 -0.0 0.0 0.0 -0.0 0.0 0.0 -2.74415e-14 -8.78636e-14 2.60805e-13 78.1102 40.2096 -2.86106 -21.2067 -14.6095 41.6963 -0.157532 -11.2411 -1.60062 -1.29631e-09 1.15387e-09 2.65373e-10 -2.24678e-09 2.01018e-09 4.52584e-10 -1.29631e-09 1.15387e-09 2.65373e-10 7.73091 5.47488 0.417314 -1.29631e-09 1.15386e-09 2.65385e-10 2.90554 0.965183 0.102902 -1.29631e-09 1.15387e-09 2.65375e-10 10.2786 0.731801 0.0259123 -1.29632e-09 1.15387e-09 2.65379e-10 2.22167 -0.733487 -0.20892 -2.76237e-14 -8.78636e-14 2.60756e-13 -76.2684 36.2722 0.605513 16.7576 -9.41063 -31.2889 1.29322 -30.4782 4.74453 -3.43883e-10 -5.53215e-10 4.90346e-10 -6.05179e-10 -9.64277e-10 8.37615e-10 -3.43887e-10 -5.53217e-10 4.90349e-10 -7.73091 5.47488 -0.417314 -3.43882e-10 -5.53212e-10 4.90346e-10 -2.90554 0.965183 -0.102902 -3.43879e-10 -5.53215e-10 4.90343e-10 -10.2786 0.731801 -0.0259123 -3.43879e-10 -5.53212e-10 4.90333e-10 -2.22167 -0.733487 0.20892 -2.03217e-16 0.0 -3.88251e-19 3.42257 -5.24734 -5.38495 0.015733 7.01241 0.19686 -1.00278 -4.13206 -9.43664 2.03217e-16 0.0 3.88251e-19 4.86704 -18.9387 -14.7842 0.141817 23.6339 -0.473219 1.6315 -10.499 4.95406
26.3607 83.8642 -48.2678 -3.8985 11.8733 4.3411 6.40998 -0.533286 5.51852 -1.29562 -2.54122 1.62849 4.10363 -8.3651 3.02013 0.54348 8.26773 4.38641 -0.0 0.0 0.0 -0.0 0.0 0.0 -1.46554e-14 -6.44939e-14 1.85809e-13 83.8317 42.788 -3.23288 -21.8335 -14.8364 44.5555 -0.168337 -11.3351 -1.61534 -1.18897e-09 1.00104e-09 2.65515e-10 -2.06088e-09 1.74474e-09 4.53389e-10 -1.18897e-09 1.00104e-09 2.65514e-10 7.73091 5.47488 0.417314 -1.18897e-09 1.00104e-09 2.65525e-10 2.90554 0.965183 0.102902 -1.18897e-09 1.00104e-09 2.65515e-10 10.2786 0.731801 0.0259123 -1.18898e-09 1.00104e-09 2.65518e-10 2.22167 -0.733487 -0.20892 -1.48188e-14 -6.44938e-14 1.85737e-13 -81.5861 39.0979 0.517654 17.6959 -9.98034 -33.8777 1.6031 -32.5515 5.1847 -3.40188e-10 -4.9677e-10 4.36432e-10 -5.97129e-10 -8.64966e-10 7.44724e-10 -3.40191e-10 -4.96774e-10 4.36437e-10 -7.73091 5.47488 -0.417314 -3.40187e-10 -4.96768e-10 4.36432e-10 -2.90554 0.965183 -0.102902 -3.40186e-10 -4.96771e-10 4.36428e-10 -10.2786 0.731801 -0.0259123 -3.40184e-10 -4.96768e-10 4.36419e-10 -2.22167 -0.733487 0.20892 -2.03217e-16 0.0 -3.88251e-19 3.64908 -5.28613 -5.83905 0.015495 7.41165 0.213629 -1.1307 -4.63144 -10.1018 2.03217e-16 0.0 3.88251e-19 4.96634 -19.9695 -15.8494 0.169728 25.3402 -0.516978 1.76418 -11.4663 5.17117
